<?xml version="1.0" encoding="UTF-8"?>
<svg width="425px" height="474px" viewBox="0 0 425 474" version="1.1" xmlns="http://www.w3.org/2000/svg" xmlns:xlink="http://www.w3.org/1999/xlink">
    <!-- Generator: Sketch 57.1 (83088) - https://sketch.com -->
    <title>What is for _</title>
    <desc>Created with Sketch.</desc>
    <defs>
        <linearGradient x1="49.8440403%" y1="-0.00162200955%" x2="50.1565034%" y2="99.9969143%" id="linearGradient-1">
            <stop stop-color="#69E3FF" offset="0%"></stop>
            <stop stop-color="#69BBED" offset="100%"></stop>
        </linearGradient>
        <linearGradient x1="63.1571805%" y1="10.0489748%" x2="36.8452318%" y2="89.9482698%" id="linearGradient-2">
            <stop stop-color="#97DBF4" offset="0%"></stop>
            <stop stop-color="#85B5E0" offset="100%"></stop>
        </linearGradient>
        <linearGradient x1="34.9133387%" y1="70.5895453%" x2="64.685523%" y2="16.323422%" id="linearGradient-3">
            <stop stop-color="#222A72" offset="0%"></stop>
            <stop stop-color="#69BBED" offset="100%"></stop>
        </linearGradient>
        <linearGradient x1="0.00523707137%" y1="50.0187742%" x2="99.9729268%" y2="50.0187742%" id="linearGradient-4">
            <stop stop-color="#69E3FF" offset="0%"></stop>
            <stop stop-color="#69BBED" offset="100%"></stop>
        </linearGradient>
        <linearGradient x1="44.2369473%" y1="53.365928%" x2="60.4102547%" y2="31.3591565%" id="linearGradient-5">
            <stop stop-color="#69E3FF" offset="0%"></stop>
            <stop stop-color="#69BBED" offset="100%"></stop>
        </linearGradient>
        <linearGradient x1="0%" y1="50%" x2="100%" y2="50%" id="linearGradient-6">
            <stop stop-color="#69E3FF" offset="0%"></stop>
            <stop stop-color="#69BBED" offset="100%"></stop>
        </linearGradient>
        <linearGradient x1="7.34366262e-14%" y1="49.9691708%" x2="100.045572%" y2="49.9691708%" id="linearGradient-7">
            <stop stop-color="#69E3FF" offset="0%"></stop>
            <stop stop-color="#69BBED" offset="100%"></stop>
        </linearGradient>
        <linearGradient x1="0.129082678%" y1="49.9538699%" x2="99.8208593%" y2="49.9538699%" id="linearGradient-8">
            <stop stop-color="#69E3FF" offset="0%"></stop>
            <stop stop-color="#69BBED" offset="100%"></stop>
        </linearGradient>
        <linearGradient x1="52.1220904%" y1="20.8797231%" x2="40.199934%" y2="146.128287%" id="linearGradient-9">
            <stop stop-color="#EFD4D1" offset="42%"></stop>
            <stop stop-color="#ECC4D7" offset="65%"></stop>
            <stop stop-color="#F2EAC9" offset="100%"></stop>
        </linearGradient>
        <linearGradient x1="-79.2171396%" y1="-9.7972973%" x2="75.6573127%" y2="52.7027027%" id="linearGradient-10">
            <stop stop-color="#ECC4D7" offset="0%"></stop>
            <stop stop-color="#785757" offset="42%"></stop>
            <stop stop-color="#927771" offset="55%"></stop>
            <stop stop-color="#F2EAC9" offset="100%"></stop>
        </linearGradient>
        <linearGradient x1="29.0964252%" y1="48.3243823%" x2="92.7254225%" y2="52.3432899%" id="linearGradient-11">
            <stop stop-color="#ECC4D7" offset="0%"></stop>
            <stop stop-color="#EFD4D1" offset="42%"></stop>
            <stop stop-color="#F2EAC9" offset="100%"></stop>
        </linearGradient>
        <linearGradient x1="174.185437%" y1="-4.83514411%" x2="76.3506123%" y2="-0.801750081%" id="linearGradient-12">
            <stop stop-color="#ECC4D7" offset="0%"></stop>
            <stop stop-color="#EFD4D1" offset="42%"></stop>
            <stop stop-color="#F2EAC9" offset="100%"></stop>
        </linearGradient>
        <linearGradient x1="-0.145468878%" y1="50.0075396%" x2="99.976362%" y2="50.0075396%" id="linearGradient-13">
            <stop stop-color="#ECC4D7" offset="0%"></stop>
            <stop stop-color="#EFD4D1" offset="42%"></stop>
            <stop stop-color="#F2EAC9" offset="100%"></stop>
        </linearGradient>
        <linearGradient x1="10.923277%" y1="59.5515519%" x2="88.946684%" y2="40.5262083%" id="linearGradient-14">
            <stop stop-color="#69E3FF" offset="0%"></stop>
            <stop stop-color="#69BBED" offset="100%"></stop>
        </linearGradient>
        <linearGradient x1="0.180831826%" y1="50.1228501%" x2="100%" y2="50.1228501%" id="linearGradient-15">
            <stop stop-color="#222A72" offset="0%"></stop>
            <stop stop-color="#69BBED" offset="100%"></stop>
        </linearGradient>
        <linearGradient x1="7.87568573%" y1="70.597853%" x2="103.0325%" y2="34.7858054%" id="linearGradient-16">
            <stop stop-color="#222A72" offset="0%"></stop>
            <stop stop-color="#69BBED" offset="100%"></stop>
        </linearGradient>
        <linearGradient x1="13.5353535%" y1="43.3746299%" x2="88.0808081%" y2="55.9767325%" id="linearGradient-17">
            <stop stop-color="#222A72" offset="0%"></stop>
            <stop stop-color="#69BBED" offset="100%"></stop>
        </linearGradient>
        <linearGradient x1="56.4896755%" y1="1.47935407%" x2="47.8613569%" y2="64.9000409%" id="linearGradient-18">
            <stop stop-color="#222A72" offset="0%"></stop>
            <stop stop-color="#69BBED" offset="100%"></stop>
        </linearGradient>
        <linearGradient x1="30.433195%" y1="37.2714487%" x2="79.342247%" y2="62.5879044%" id="linearGradient-19">
            <stop stop-color="#222A72" offset="0%"></stop>
            <stop stop-color="#69BBED" offset="100%"></stop>
        </linearGradient>
        <linearGradient x1="0%" y1="50%" x2="100%" y2="50%" id="linearGradient-20">
            <stop stop-color="#222A72" offset="0%"></stop>
            <stop stop-color="#69BBED" offset="100%"></stop>
        </linearGradient>
        <linearGradient x1="0.340672765%" y1="49.798718%" x2="100.812382%" y2="49.798718%" id="linearGradient-21">
            <stop stop-color="#ECC4D7" offset="0%"></stop>
            <stop stop-color="#EFD4D1" offset="42%"></stop>
            <stop stop-color="#F2EAC9" offset="100%"></stop>
        </linearGradient>
        <linearGradient x1="0%" y1="50%" x2="100%" y2="50%" id="linearGradient-22">
            <stop stop-color="#69E3FF" offset="0%"></stop>
            <stop stop-color="#69BBED" offset="100%"></stop>
        </linearGradient>
        <linearGradient x1="-31.3150759%" y1="169.078044%" x2="-19.2939971%" y2="295.144637%" id="linearGradient-23">
            <stop stop-color="#EFD4D1" offset="42%"></stop>
            <stop stop-color="#ECC4D7" offset="65%"></stop>
            <stop stop-color="#F2EAC9" offset="100%"></stop>
        </linearGradient>
        <linearGradient x1="178.96719%" y1="-9.62199313%" x2="24.4498963%" y2="52.7491409%" id="linearGradient-24">
            <stop stop-color="#ECC4D7" offset="0%"></stop>
            <stop stop-color="#785757" offset="42%"></stop>
            <stop stop-color="#927771" offset="55%"></stop>
            <stop stop-color="#F2EAC9" offset="100%"></stop>
        </linearGradient>
        <linearGradient x1="70.2891917%" y1="49.0924818%" x2="7.38149403%" y2="53.0890121%" id="linearGradient-25">
            <stop stop-color="#ECC4D7" offset="0%"></stop>
            <stop stop-color="#EFD4D1" offset="42%"></stop>
            <stop stop-color="#F2EAC9" offset="100%"></stop>
        </linearGradient>
        <linearGradient x1="0.00398090429%" y1="49.7820856%" x2="99.8197793%" y2="49.7820856%" id="linearGradient-26">
            <stop stop-color="#ECC4D7" offset="0%"></stop>
            <stop stop-color="#EFD4D1" offset="42%"></stop>
            <stop stop-color="#F2EAC9" offset="100%"></stop>
        </linearGradient>
        <linearGradient x1="-27.9463493%" y1="-97.6188653%" x2="63.0941342%" y2="67.6700556%" id="linearGradient-27">
            <stop stop-color="#D09BC0" offset="0%"></stop>
            <stop stop-color="#CC93BA" offset="21%"></stop>
            <stop stop-color="#C17EA9" offset="54%"></stop>
            <stop stop-color="#B05B8D" offset="95%"></stop>
            <stop stop-color="#AF5A8C" offset="96%"></stop>
        </linearGradient>
        <linearGradient x1="50.5522066%" y1="46.1313637%" x2="36.8223641%" y2="67.4325858%" id="linearGradient-28">
            <stop stop-color="#97DBF4" offset="0%"></stop>
            <stop stop-color="#85B5E0" offset="100%"></stop>
        </linearGradient>
        <linearGradient x1="49.0985748%" y1="50.3485347%" x2="35.5779367%" y2="101.095455%" id="linearGradient-29">
            <stop stop-color="#97DBF4" offset="0%"></stop>
            <stop stop-color="#85B5E0" offset="100%"></stop>
        </linearGradient>
        <linearGradient x1="0.715155862%" y1="49.7231124%" x2="100.655555%" y2="49.7231124%" id="linearGradient-30">
            <stop stop-color="#EEC6D9" offset="0%"></stop>
            <stop stop-color="#F1D6D3" offset="42%"></stop>
            <stop stop-color="#F4ECCB" offset="100%"></stop>
        </linearGradient>
        <linearGradient x1="0%" y1="50%" x2="100%" y2="50%" id="linearGradient-31">
            <stop stop-color="#69E3FF" offset="0%"></stop>
            <stop stop-color="#69BBED" offset="100%"></stop>
        </linearGradient>
        <linearGradient x1="-0.0966026768%" y1="49.7956753%" x2="100.010408%" y2="49.7956753%" id="linearGradient-32">
            <stop stop-color="#D09BC0" offset="0%"></stop>
            <stop stop-color="#CC93BA" offset="21%"></stop>
            <stop stop-color="#C17EA9" offset="54%"></stop>
            <stop stop-color="#B05B8D" offset="95%"></stop>
            <stop stop-color="#AF5A8C" offset="96%"></stop>
        </linearGradient>
        <linearGradient x1="0.0779436993%" y1="49.7534493%" x2="100.336255%" y2="49.7534493%" id="linearGradient-33">
            <stop stop-color="#EEC6D9" offset="0%"></stop>
            <stop stop-color="#F1D6D3" offset="42%"></stop>
            <stop stop-color="#F4ECCB" offset="100%"></stop>
        </linearGradient>
        <linearGradient x1="-0.280906528%" y1="49.6354424%" x2="100.043283%" y2="49.6354424%" id="linearGradient-34">
            <stop stop-color="#D09BC0" offset="0%"></stop>
            <stop stop-color="#CC93BA" offset="21%"></stop>
            <stop stop-color="#C17EA9" offset="54%"></stop>
            <stop stop-color="#B05B8D" offset="95%"></stop>
            <stop stop-color="#AF5A8C" offset="96%"></stop>
        </linearGradient>
        <linearGradient x1="0.00184972713%" y1="48.1370428%" x2="100.004314%" y2="48.1370428%" id="linearGradient-35">
            <stop stop-color="#EEC6D9" offset="0%"></stop>
            <stop stop-color="#F1D6D3" offset="42%"></stop>
            <stop stop-color="#F4ECCB" offset="100%"></stop>
        </linearGradient>
        <linearGradient x1="0.0805843099%" y1="49.9207358%" x2="99.9999667%" y2="49.9207358%" id="linearGradient-36">
            <stop stop-color="#D09BC0" offset="0%"></stop>
            <stop stop-color="#CC93BA" offset="21%"></stop>
            <stop stop-color="#C17EA9" offset="54%"></stop>
            <stop stop-color="#B05B8D" offset="95%"></stop>
            <stop stop-color="#AF5A8C" offset="96%"></stop>
        </linearGradient>
        <linearGradient x1="0.0502685156%" y1="50.0460491%" x2="100.009284%" y2="50.0460491%" id="linearGradient-37">
            <stop stop-color="#D09BC0" offset="0%"></stop>
            <stop stop-color="#CC93BA" offset="21%"></stop>
            <stop stop-color="#C17EA9" offset="54%"></stop>
            <stop stop-color="#B05B8D" offset="95%"></stop>
            <stop stop-color="#AF5A8C" offset="96%"></stop>
        </linearGradient>
        <linearGradient x1="100.022931%" y1="50.1638359%" x2="0.0995630292%" y2="50.1638359%" id="linearGradient-38">
            <stop stop-color="#EEC6D9" offset="0%"></stop>
            <stop stop-color="#F1D6D3" offset="42%"></stop>
            <stop stop-color="#F4ECCB" offset="100%"></stop>
        </linearGradient>
        <linearGradient x1="21.0074584%" y1="30.0377137%" x2="94.8802099%" y2="82.112549%" id="linearGradient-39">
            <stop stop-color="#EEC6D9" offset="0%"></stop>
            <stop stop-color="#F1D6D3" offset="42%"></stop>
            <stop stop-color="#F4ECCB" offset="100%"></stop>
        </linearGradient>
        <linearGradient x1="-0.206868311%" y1="50.1293604%" x2="101.362533%" y2="50.1293604%" id="linearGradient-40">
            <stop stop-color="#EEC6D9" offset="0%"></stop>
            <stop stop-color="#F1D6D3" offset="42%"></stop>
            <stop stop-color="#F4ECCB" offset="100%"></stop>
        </linearGradient>
        <linearGradient x1="0%" y1="50%" x2="100%" y2="50%" id="linearGradient-41">
            <stop stop-color="#69E3FF" offset="0%"></stop>
            <stop stop-color="#69BBED" offset="100%"></stop>
        </linearGradient>
        <linearGradient x1="-0.126724784%" y1="49.9914602%" x2="99.8591298%" y2="49.9914602%" id="linearGradient-42">
            <stop stop-color="#69E3FF" offset="0%"></stop>
            <stop stop-color="#69BBED" offset="100%"></stop>
        </linearGradient>
        <linearGradient x1="0.165357729%" y1="50.0688546%" x2="100%" y2="50.0688546%" id="linearGradient-43">
            <stop stop-color="#69E3FF" offset="0%"></stop>
            <stop stop-color="#69BBED" offset="100%"></stop>
        </linearGradient>
        <linearGradient x1="-0.0201640395%" y1="50.2482208%" x2="99.8944935%" y2="50.2482208%" id="linearGradient-44">
            <stop stop-color="#EEC6D9" offset="0%"></stop>
            <stop stop-color="#F1D6D3" offset="42%"></stop>
            <stop stop-color="#F4ECCB" offset="100%"></stop>
        </linearGradient>
        <linearGradient x1="100.046642%" y1="50.005093%" x2="6.31326949e-14%" y2="50.005093%" id="linearGradient-45">
            <stop stop-color="#D09BC0" offset="0%"></stop>
            <stop stop-color="#CC93BA" offset="21%"></stop>
            <stop stop-color="#C17EA9" offset="54%"></stop>
            <stop stop-color="#B05B8D" offset="95%"></stop>
            <stop stop-color="#AF5A8C" offset="96%"></stop>
        </linearGradient>
        <linearGradient x1="119.664393%" y1="50.3086256%" x2="19.7074058%" y2="50.3086256%" id="linearGradient-46">
            <stop stop-color="#D09BC0" offset="0%"></stop>
            <stop stop-color="#CC93BA" offset="21%"></stop>
            <stop stop-color="#C17EA9" offset="54%"></stop>
            <stop stop-color="#B05B8D" offset="95%"></stop>
            <stop stop-color="#AF5A8C" offset="96%"></stop>
        </linearGradient>
        <linearGradient x1="81.0687609%" y1="29.9983666%" x2="2.29192771%" y2="82.0946422%" id="linearGradient-47">
            <stop stop-color="#EEC6D9" offset="0%"></stop>
            <stop stop-color="#F1D6D3" offset="42%"></stop>
            <stop stop-color="#F4ECCB" offset="100%"></stop>
        </linearGradient>
        <linearGradient x1="0.0731385232%" y1="49.9047039%" x2="100.620664%" y2="49.9047039%" id="linearGradient-48">
            <stop stop-color="#69E3FF" offset="0%"></stop>
            <stop stop-color="#69BBED" offset="100%"></stop>
        </linearGradient>
    </defs>
    <g id="Page-1" stroke="none" stroke-width="1" fill="none" fill-rule="evenodd">
        <g id="How-it-works" transform="translate(-198.000000, -1526.000000)">
            <g id="What-is-for-_" transform="translate(198.000000, 1524.000000)">
                <ellipse id="Oval" fill="url(#linearGradient-1)" fill-rule="nonzero" opacity="0.07" transform="translate(214.508645, 354.215177) rotate(-89.690000) translate(-214.508645, -354.215177) " cx="214.508645" cy="354.215177" rx="121.245739" ry="209.966049"></ellipse>
                <ellipse id="Oval" stroke="url(#linearGradient-2)" stroke-width="2.08" opacity="0.55" transform="translate(211.961674, 335.764255) rotate(-89.690000) translate(-211.961674, -335.764255) " cx="211.961674" cy="335.764255" rx="121.245739" ry="209.964354"></ellipse>
                <path d="M206.703512,177.462696 C209.342634,171.352609 214.558537,166.26087 222.35122,162.104348 L244.212293,150.071217 C251.513171,146.496609 256.542049,142.256957 259.298927,137.352261 C262.055805,132.447565 263.441171,125.520029 263.455024,116.569652 C263.472057,103.639235 259.598268,91.0028754 252.337463,80.304 C244.911902,69.0952464 234.043707,59.3966957 219.732878,51.2083478 C198.758439,39.0990145 185.334244,39.2514203 179.460293,51.6655652 C177.091317,56.5286957 167.116683,65.1742609 149.619512,71.7831304 L145.463415,71.9493913 C139.063024,68.250087 130.917073,44.4747826 131.706732,37.1177391 C133.951024,18.7043478 152.840488,10.0795652 163.750244,4.94626087 C176.95278,-1.28852174 195.731415,2.60475362 220.086146,16.626087 C244.205366,30.5504348 263.11561,48.0286087 276.816878,69.0606087 C290.518146,90.0926087 297.361854,111.997478 297.348021,134.775217 C297.348021,146.593594 295.526244,156.354493 291.882732,164.057913 C288.1134,171.909966 282.179871,178.521874 274.78039,183.115565 L274.78039,183.115565 L249.19961,197.663391 C244.632346,199.94906 240.928557,203.653227 238.643122,208.220957 C236.883707,212.252783 236.004,218.598406 236.004,227.257826 L236.004,233.492609 C236.004,240.475565 216.345659,255.459826 210.277756,251.968348 L211.420683,235.030522 C206.105791,231.971578 202.832251,226.303733 202.838341,220.170957 L202.838341,206.537565 C202.782927,193.278261 204.071317,183.586638 206.703512,177.462696 Z M238.186085,296.879565 L238.186085,309.34913 C238.186085,318.472696 219.878341,331.524174 209.321854,331.503416 L210.506341,313.900522 C204.076999,310.188161 200.116286,303.327505 200.116098,295.902783 L185.237268,292.45287 C185.237268,283.329304 209.986829,269.051652 217.883415,273.603043 L228.273659,279.588435 C234.43225,283.164237 238.211982,289.75765 238.186085,296.879565 L238.186085,296.879565 Z" id="Shape" fill="url(#linearGradient-3)" fill-rule="nonzero"></path>
                <path d="M190.224585,187.77087 C192.863707,181.660783 198.07961,176.506696 205.872293,172.370957 L227.733366,160.337826 C235.006537,156.742435 240.035415,152.523565 242.79922,147.61887 C245.563024,142.714174 246.955317,135.814348 246.955317,126.836261 C246.96622,113.903662 243.085134,101.267118 235.816976,90.5706087 C228.419122,79.3618551 217.557854,69.6633043 203.233171,61.4749565 C182.258732,49.3517681 168.834537,49.5041739 162.960585,61.9321739 C160.830446,66.4113346 156.925324,69.7962235 152.189373,71.268465 C147.453423,72.7407065 142.317742,72.1662874 138.024,69.684087 L136.631707,68.8735652 C130.227486,65.1741998 126.646511,58.011519 127.529854,50.668 C129.788,32.129913 136.361561,20.3253913 147.250537,15.2544348 C160.43922,9.01965217 179.238634,12.9406377 203.64878,27.0173913 C227.781854,40.8724638 246.685171,58.3506377 260.358732,79.451913 C274.032293,100.553188 280.882927,122.458058 280.910634,145.166522 C280.910634,156.998754 279.088878,166.759652 275.445366,174.449217 C271.664601,182.300136 265.724919,188.910868 258.322244,193.50687 L258.322244,193.50687 L232.720683,208.054696 C228.15342,210.340364 224.44963,214.044531 222.164195,218.612261 C220.418634,222.644087 219.525073,229.003565 219.525073,237.64913 L219.525073,243.883913 C219.636102,247.217679 217.906736,250.342884 215.02328,252.019281 C212.139824,253.695678 208.568589,253.652161 205.726829,251.906 L194.775512,245.671217 C189.448956,242.57107 186.19608,236.850184 186.255512,230.686957 L186.255512,216.804174 C186.255512,203.57258 187.578537,193.894812 190.224585,187.77087 Z M221.68639,307.166957 L221.68639,319.636522 C221.688959,323.870078 219.43241,327.783279 215.767095,329.901233 C212.10178,332.019186 207.58492,332.01991 203.918927,329.90313 L194.006634,324.208696 C187.577292,320.496334 183.61639,313.635679 183.61639,306.210957 L183.61639,294.177826 C183.622237,289.943273 185.883863,286.0327 189.551116,283.916102 C193.218368,281.799504 197.735493,281.797643 201.404488,283.911217 L211.794732,289.896609 C217.942032,293.470838 221.713424,300.0556 221.68639,307.166957 L221.68639,307.166957 Z" id="Shape" fill="url(#linearGradient-4)" fill-rule="nonzero"></path>
                <path d="M186.421756,189.807565 C189.067805,183.683623 194.283707,178.543391 202.069463,174.38687 L223.930537,162.353739 C231.189854,158.77913 236.204878,154.539478 238.97561,149.634783 C241.746341,144.730087 243.131707,137.802551 243.131707,128.852174 C243.14261,115.919575 239.261524,103.283031 231.993366,92.5865217 C224.609366,81.4193333 213.775805,71.7 199.492683,63.4285217 C178.518244,51.3330435 165.094049,51.4923768 159.220098,63.9065217 C157.089958,68.3856824 153.184836,71.7705713 148.448886,73.2428128 C143.712935,74.7150543 138.577254,74.1406353 134.283512,71.6584348 L132.89122,70.847913 C126.486998,67.1485476 122.906024,59.9858669 123.789366,52.6423478 C125.992098,34.1735362 132.524098,22.3828696 143.385366,17.2703478 C156.61561,11.0632754 175.421951,15.0050435 199.80439,29.0956522 C223.937463,42.9507246 242.84078,60.4150435 256.514341,81.4886087 C270.187902,102.562174 277.038537,124.467043 277.066244,147.203217 C277.066244,159.021594 275.244488,168.782493 271.600976,176.485913 C267.816255,184.32766 261.886213,190.935684 254.498634,195.543565 L254.498634,195.543565 L228.897073,210.091391 C224.32981,212.37706 220.626021,216.081227 218.340585,220.648957 C216.595024,224.680783 215.722244,231.019478 215.722244,239.665043 L215.722244,245.899826 C215.721026,249.146048 213.987433,252.144786 211.175033,253.765511 C208.362634,255.386236 204.89912,255.382477 202.090244,253.755652 L191.138927,247.52087 C185.828479,244.494402 182.522028,238.877607 182.452683,232.765217 L182.452683,218.903217 C182.452683,205.616203 183.775707,195.917652 186.421756,189.807565 Z M217.883469,309.203652 L217.883469,321.673217 C217.88613,325.906774 215.629581,329.819974 211.964266,331.937928 C208.298951,334.055882 203.782091,334.056605 200.116098,331.939826 L190.224585,326.286957 C183.795243,322.574595 179.834341,315.71394 179.834341,308.289217 L179.834341,296.256087 C179.847583,292.025248 182.11213,288.121458 185.778033,286.009922 C189.443936,283.898386 193.956657,283.898515 197.622439,286.010261 L208.012683,291.97487 C214.139108,295.546924 217.900034,302.111399 217.883469,309.203652 Z" id="Shape" fill="url(#linearGradient-5)" fill-rule="nonzero"></path>
                <ellipse id="Oval" fill="url(#linearGradient-6)" fill-rule="nonzero" opacity="0.44" cx="115.560293" cy="248.456087" rx="27.7419512" ry="15.2544348"></ellipse>
                <path d="M113.212098,228.608696 C113.212098,228.608696 122.002244,233.991391 123.062049,236.298261 C124.121854,238.60513 123.186732,240.704174 118.157854,239.457217 C114.690697,238.837996 111.303348,237.834234 108.058537,236.464522 C105.814244,235.238348 102.884195,232.557391 103.736195,230.375217 C104.463268,228.441939 105.836072,226.819369 107.622146,225.782261 C108.64039,225.449739 113.212098,228.608696 113.212098,228.608696 Z" id="Path" fill="#061C3D" fill-rule="nonzero"></path>
                <path d="M115.373268,157.469826 C115.373268,161.16913 115.809659,155.599391 116.121366,159.277913 C117.285073,173.036 121.316488,184.695043 119.487805,204.18913 C119.176098,207.576696 116.391512,216.658696 115.705756,220.067043 C115.123902,222.851913 114.708293,227.985217 112.941951,230.250522 C111.140415,232.017074 108.303493,232.159827 106.333756,230.583043 C103.736195,228.629478 104.941463,225.013304 105.128488,222.27 L106.666244,198.640174 C106.749333,198.040343 106.749333,197.431918 106.666244,196.832087 C106.437659,195.605913 100.785366,182.886957 100.889268,176.652174 C100.834021,172.304086 100.486899,167.964614 99.8502439,163.663043 C99.8502439,163.663043 102.447805,156.596957 107.726049,156.035826 C110.364446,155.597478 113.072865,156.105359 115.373268,157.469826 L115.373268,157.469826 Z" id="Path" fill="url(#linearGradient-7)" fill-rule="nonzero"></path>
                <path d="M104.754439,238.563565 C104.754439,238.563565 111.965268,245.712783 111.965268,248.061217 C111.965268,250.409652 107.476683,251.053913 102.884195,248.372957 C99.7048776,246.791362 96.7201646,244.845521 93.9901463,242.574609 C92.2445854,240.766522 91.2679024,237.046435 93.2212683,235.383826 C94.6105111,234.002187 96.4430919,233.155728 98.3956098,232.993826 C99.7463415,232.993826 104.754439,238.563565 104.754439,238.563565 Z" id="Path" fill="#061C3D" fill-rule="nonzero"></path>
                <path d="M84.5142439,161.273043 C84.474314,161.999887 84.474314,162.728374 84.5142439,163.455217 C85.2,174.158261 89.7924878,187.043478 90.270439,190.971391 C90.7483902,194.899304 91.8497561,209.821217 92.3484878,220.067043 C92.826439,229.252957 92.7225366,234.968174 93.6576585,237.399739 L93.6576585,237.399739 C93.6576585,237.628348 98.5410732,240.143043 100.473659,238.812957 C102.406244,237.48287 104.255707,214.70513 104.38039,206.745391 C104.589749,200.935582 105.12395,195.142036 105.980488,189.391913 C107.518244,172.267043 107.684488,161.564 107.684488,161.564 C103.21138,160.565005 98.6888446,159.801923 94.1356098,159.27726 C90.8233143,159.253141 87.5436308,159.933231 84.5142439,161.273043 L84.5142439,161.273043 Z" id="Path" fill="url(#linearGradient-8)" fill-rule="nonzero"></path>
                <path d="M82.685561,120.352087 C82.9972683,122.430348 83.2674146,124.508609 83.496,126.58687 C84.0362927,131.928 84.2856585,137.393826 84.3687805,142.402435 C84.5350244,153.666609 83.8492683,162.60313 83.8492683,162.60313 C89.5037114,164.655406 95.5573471,165.366834 101.533463,164.681391 C112.380878,163.746174 115.394049,157.698435 115.394049,157.698435 C115.394049,157.698435 114.521268,132.572261 114.292683,123.282435 C114.064098,113.992609 118.739707,112.89113 112.921171,105.575652 C112.671805,105.263913 112.152293,104.723565 112.152293,104.723565 C106.105171,98.9044348 96.0681951,104.141652 92.9926829,105.928957 C89.6547168,107.581392 86.6967137,109.909819 84.306439,112.766435 L84.306439,112.766435 C82.7282576,114.956605 82.1403268,117.7081 82.685561,120.352087 Z" id="Path" fill="#222A72" fill-rule="nonzero"></path>
                <polygon id="Path" fill="#FFFFFF" fill-rule="nonzero" opacity="0.34" points="86.093561 163.455217 87.5689756 133.008696 84.6597073 134.110174 83.8284878 162.686261"></polygon>
                <path d="M85.6987317,135.980609 C86.8832195,129.745826 80.6490732,120.393652 87.9430244,111.602609 C90.1457561,109.025565 91.5380488,108.942435 94.655122,107.15513 C97.8935902,105.296504 101.61152,104.442885 105.336293,104.702783 C107.884075,104.542126 110.439871,104.84491 112.87961,105.596435 C106.894829,98.9252174 96.0266341,104.183217 92.951122,105.970522 C89.6088896,107.616192 86.6495803,109.945647 84.264878,112.808 L84.264878,112.808 C83.1678289,114.223557 82.5362407,115.944266 82.4569756,117.733478 C83.1115586,123.883905 84.1947785,129.981111 85.6987317,135.980609 L85.6987317,135.980609 Z" id="Path" fill="#FFFFFF" fill-rule="nonzero" opacity="0.34"></path>
                <path d="M103.299805,109.462 C100.078829,111.374 95.6733659,108.506 94.9876098,107.259043 C94.6999451,106.420891 94.5320442,105.546318 94.488878,104.661217 C94.3007383,102.293799 93.8618901,99.9530367 93.1797073,97.6782609 C93.7114036,98.2749609 94.4596684,98.6341647 95.2577561,98.6758261 C98.2709268,98.3433043 102.406244,95.4545217 103.029659,97.8237391 C103.029659,97.8237391 102.801073,102.832348 102.821854,102.894696 C103.611512,105.991304 106.437659,107.63313 103.299805,109.462 Z" id="Path" fill="url(#linearGradient-9)" fill-rule="nonzero"></path>
                <path d="M103.07122,97.8029565 C99.8895993,97.8373232 96.7204328,98.2065166 93.6160976,98.9044348 C94.3193476,100.738492 94.6308111,102.699496 94.530439,104.661217 L94.9252683,107.072 C95.4278656,107.814069 96.0788318,108.443872 96.8370732,108.921652 C97.817054,109.441217 98.8568619,109.839036 99.9333659,110.106261 C99.8086829,110.106261 97.086439,104.910609 99.2683902,104.661217 L99.2683902,104.661217 C99.4425345,104.524279 99.6510469,104.437989 99.8710244,104.411826 C101.885933,103.545505 103.221036,101.595247 103.299805,99.4032174 L103.07122,97.8029565 Z" id="Path" fill="url(#linearGradient-10)" fill-rule="nonzero"></path>
                <path d="M107.061073,86.2270435 C107.357601,86.6570378 107.53014,87.1603265 107.559805,87.6818261 C107.663745,89.1971759 107.663745,90.7178676 107.559805,92.2332174 C107.746829,93.1268696 107.871512,94.0205217 107.975415,94.9349565 C107.975415,96.3273913 106.541561,103.248 102.614049,103.497391 C99.8068231,103.584131 97.1080813,102.409983 95.2577561,100.29687 C94.0414414,98.8539127 92.9104421,97.3411335 91.8705366,95.7662609 C90.8416487,93.7846693 90.0399764,91.6931368 89.4807805,89.5314783 C89.1067317,87.2453913 90.228878,82.7147826 91.9952195,82.319913 L93.7823415,81.9250435 C94.0326135,81.1994875 94.5980402,80.6263615 95.3200976,80.3663478 C97.1152266,79.6936743 99.1371781,80.1142831 100.51522,81.4470435 C101.969854,82.4446087 103.466049,83.3174783 104.879122,84.3150435 C105.706168,84.8286536 106.443289,85.4745773 107.061073,86.2270435 Z" id="Path" fill="url(#linearGradient-11)" fill-rule="nonzero"></path>
                <path d="M108.058537,84.2734783 C107.958643,85.2489214 107.393577,86.1159602 106.541561,86.6011304 C106.145514,86.8305587 105.688322,86.9321672 105.23239,86.892087 C99.9333659,85.6035652 98.9982439,88.0974783 98.6034146,88.2013913 C97.7514146,88.4715652 96.8370732,87.7026087 96.0058537,88.0143478 C95.3375449,88.3180172 94.9306049,89.0073941 94.9876098,89.7393043 C94.9876098,90.445913 95.1538537,91.1733043 95.1122927,91.8175652 C95.1122927,92.0669565 95.2993171,92.6904348 95.1122927,92.9606087 L94.4265366,92.9606087 L94.0317073,92.1085217 C93.93266,91.767501 93.7931298,91.4395715 93.6160976,91.1317391 C93.2836098,90.6537391 93.0134634,90.2588696 92.6394146,90.238087 C92.4325781,90.2290279 92.2283915,90.2873729 92.057561,90.4043478 C91.3464672,91.0827279 91.2077533,92.1665408 91.7250732,93.0021739 C92.2956705,93.824682 92.7961624,94.6936803 93.2212683,95.6 C93.4287696,96.1919624 93.4287696,96.8369071 93.2212683,97.4288696 C92.5978537,97.615913 92.016,97.034 91.6419512,96.4728696 C90.8193038,94.7529778 90.1247334,92.974696 89.5639024,91.1525217 C89.0651707,90.0510435 88.566439,89.864 87.756,89.2613043 C86.945561,88.6586087 86.2805854,88.3676522 86.010439,87.5155652 C85.5948293,86.1231304 86.7585366,83.8786087 87.2157073,82.590087 C87.7414407,80.753608 88.7454158,79.0897081 90.1249756,77.7685217 C91.8025192,76.3803906 94.0490975,75.892291 96.1513171,76.4592174 C96.8741464,76.761967 97.6371536,76.9579888 98.4163902,77.0411304 C99.334517,76.8921185 100.243406,76.6908937 101.138634,76.4384348 C101.932887,76.3798286 102.730892,76.4787066 103.486829,76.7293913 C104.796,77.1034783 107.435122,77.3944348 108.266341,78.5166957 C109.326146,79.8883478 108.411805,82.694 108.058537,84.2734783 Z" id="Path" fill="#222A72" fill-rule="nonzero"></path>
                <path d="M93.2004878,97.4288696 C92.5562927,97.615913 91.9120976,97.034 91.6003902,96.4728696 C89.7924878,93.7295652 90.4990244,91.879913 88.3794146,89.3652174 L87.9638049,89.3652174 C87.9221373,89.2298001 87.9221373,89.0849825 87.9638049,88.9495652 C88.089495,88.839883 88.2550208,88.7872103 88.4209756,88.804087 C89.9587317,88.804087 92.1406829,88.6793913 92.5770732,90.3627826 C92.3808097,90.3610306 92.18996,90.4271007 92.0367805,90.5498261 C91.3188492,91.2228886 91.1713863,92.3072848 91.6835122,93.1476522 C92.2229591,93.9745779 92.6954867,94.8432834 93.0965854,95.7454783 C93.3071146,96.2817747 93.3434673,96.8707494 93.2004878,97.4288696 Z" id="Path" fill="#151F5B" fill-rule="nonzero"></path>
                <path d="M112.214634,104.785913 L124.682927,117.11 C125.140098,117.67113 125.638829,118.710261 125.26478,119.333739 L119.986537,127.106435 C119.536121,127.856877 118.576265,128.122007 117.804585,127.70913 L114.292683,125.901043 L112.214634,104.785913 Z" id="Path" fill="#222A72" fill-rule="nonzero"></path>
                <path d="M133.78478,111.498696 L135.218634,111.602609" id="Path"></path>
                <path d="M97.5020488,134.671304 L101.117854,142.194609 C101.782829,143.566261 102.343902,145.083391 103.195902,146.35113 C104.318049,148.18 107.144195,148.928174 109.097561,149.385391 L115.331707,150.798609 C116.007157,150.989563 116.708309,151.073709 117.409756,151.048 C118.321176,150.838865 119.211528,150.546688 120.069659,150.17513 C120.958799,149.817375 121.975881,150.030655 122.646439,150.715478 C123.129399,151.695142 122.899919,152.876658 122.085366,153.604261 C120.782835,154.936978 119.070315,155.793325 117.222732,156.035826 C115.387274,156.264261 113.53058,156.264261 111.695122,156.035826 C109.056,155.765652 106.396098,155.412348 103.777756,154.934348 C101.845171,154.581043 98.8527805,154.435565 97.3981463,153.022348 C94.0531278,148.854381 90.9516681,144.496628 88.1092683,139.97087 L97.5020488,134.671304 Z" id="Path" fill="url(#linearGradient-12)" fill-rule="nonzero"></path>
                <path d="M87.5066341,140.594348 C88.1128191,140.573175 88.7168547,140.510682 89.3145366,140.407304 C92.207577,140.008198 94.987506,139.017791 97.4812683,137.497739 C98.0219806,137.194074 98.4955981,136.784035 98.873561,136.292348 C98.8958334,136.253767 98.8958334,136.206233 98.873561,136.167652 C99.3932694,134.94597 99.3932694,133.565334 98.873561,132.343652 C97.401454,127.289031 95.3806434,122.410714 92.8472195,117.795826 C92.0367805,116.278696 90.312,113.389913 88.566439,112.766435 C87.3117,112.333596 85.9404949,112.385485 84.7220488,112.911913 L84.7220488,112.911913 C84.2615772,113.112389 83.8710155,113.445124 83.5999024,113.867913 C80.6906341,118.336174 82.1244878,125.173652 83.454439,130.327739 C84.1777678,133.965534 85.5504176,137.443269 87.5066341,140.594348 Z" id="Path" fill="#222A72" fill-rule="nonzero"></path>
                <path d="M110.136585,106.801826 C110.036011,106.715176 109.945403,106.617588 109.866439,106.51087 C108.7424,105.202047 107.970046,103.628572 107.622146,101.938696 C107.564922,101.590642 107.45269,101.253911 107.289659,100.94113 C107.102663,100.614355 106.715287,100.459389 106.354537,100.567043 C105.897366,100.77487 105.855805,101.439913 105.481756,101.772435 C105.157129,101.986056 104.760532,102.060893 104.38039,101.980261 C103.615349,101.890804 102.862626,101.716544 102.136098,101.460696 C101.62013,101.225288 101.061448,101.09798 100.494439,101.086609 C100.172377,101.130442 99.8618668,101.236309 99.5800976,101.398348 C99.30087,101.52277 99.0525289,101.707271 98.8527805,101.938696 C98.2917073,102.666087 99.1229268,103.663652 99.5800976,104.245565 C100.188996,104.944281 100.887756,105.559252 101.658146,106.074435 C102.95265,106.889764 104.194971,107.78516 105.377854,108.755391 C106.227543,109.594917 106.98673,110.52136 107.642927,111.519478 C108.910537,113.306783 110.136585,115.094087 111.321073,116.922957 C114.271902,121.412 117.13961,126.150435 121.545073,129.205478 C123.851707,130.805739 125.285561,128.997652 126.262244,126.857043 C127.181166,124.191204 126.575941,121.236446 124.682927,119.146696 C123.186732,117.213913 120.526829,116.382609 118.44878,115.177217 C116.398261,113.958201 114.571009,112.39785 113.045854,110.563478 C112.48478,109.898435 111.944488,109.212609 111.445756,108.485217 L110.718439,107.404522 C110.535492,107.193281 110.341257,106.992089 110.136585,106.801826 L110.136585,106.801826 Z" id="Path" fill="url(#linearGradient-13)" fill-rule="nonzero"></path>
                <polygon id="Path" fill="url(#linearGradient-14)" fill-rule="nonzero" points="105.419415 146.143304 124.163415 137.809478 137.379805 142.256957 120.609951 150.549217"></polygon>
                <polygon id="Path" fill="url(#linearGradient-15)" fill-rule="nonzero" points="125.327122 140.739826 113.835512 147.078522 120.526829 149.198348"></polygon>
                <path d="M149.619512,125.921826 L140.060488,143.4 C139.842899,143.785316 139.508013,144.091112 139.104585,144.27287 L122.106146,152.274174 L122.106146,152.274174 C121.894519,152.367856 121.670601,152.430839 121.441171,152.461217 L121.441171,152.461217 C121.11259,152.533309 120.772288,152.533309 120.443707,152.461217 L104.796,147.930609 L105.460976,146.164087 L120.007317,150.320609 L127.301268,137.040522 C127.637657,136.419785 128.1513,135.913324 128.776683,135.585739 L148.601268,124.986609 C148.874977,124.878961 149.186107,124.936901 149.40273,125.13586 C149.619352,125.334819 149.703508,125.639934 149.619512,125.921826 Z" id="Path" fill="url(#linearGradient-16)" fill-rule="nonzero"></path>
                <polygon id="Path" fill="url(#linearGradient-17)" fill-rule="nonzero" points="120.048878 140.178696 123.249073 141.363304 116.890244 144.896348 112.962732 143.503913"></polygon>
                <path d="M149.619512,125.921826 L140.060488,143.4 C139.842899,143.785316 139.508013,144.091112 139.104585,144.27287 L122.106146,152.274174 L122.106146,152.274174 L121.441171,152.461217 L129.753366,136.645652 L149.619512,125.921826 Z" id="Path" fill="url(#linearGradient-18)" fill-rule="nonzero"></path>
                <polygon id="Path" fill="url(#linearGradient-19)" fill-rule="nonzero" points="292.589268 206.205043 299.135122 210.049826 322.700195 188.830783 322.700195 165.720522 292.589268 183.094783"></polygon>
                <polygon id="Path" fill="url(#linearGradient-20)" fill-rule="nonzero" points="299.135122 210.049826 329.246049 192.675565 329.246049 169.565304 299.135122 186.939565"></polygon>
                <polygon id="Path" fill="#151F5B" fill-rule="nonzero" points="315.136098 114.927826 311.644976 144.43913 307.052488 162.561565 315.156878 166.406348 320.78839 150.154348"></polygon>
                <path d="M306.325171,168.630087 C306.148773,169.522027 306.148773,170.439886 306.325171,171.331826 C306.358382,171.765946 306.493666,172.186079 306.72,172.558 C307.029712,172.93076 307.441317,173.205191 307.904488,173.347739 C309.457438,174.188174 311.344718,174.116498 312.829463,173.160696 C313.713805,172.117499 314.18675,170.787207 314.159415,169.419826 L314.471122,166.344 C314.581341,165.773429 314.530983,165.183457 314.325659,164.639826 C314.037163,164.167579 313.608582,163.797072 313.09961,163.579913 C311.85278,162.956435 309.566927,161.979652 308.631805,163.579913 C308.195415,164.286522 307.98761,165.180174 307.59278,165.907565 C307.063179,166.76126 306.637617,167.675264 306.325171,168.630087 L306.325171,168.630087 Z" id="Path" fill="url(#linearGradient-21)" fill-rule="nonzero"></path>
                <ellipse id="Oval" fill="url(#linearGradient-22)" fill-rule="nonzero" opacity="0.44" cx="322.762537" cy="244.611304" rx="27.222439" ry="14.9634783"></ellipse>
                <path d="M317.546634,230.292087 C317.546634,230.292087 308.901951,235.57087 307.883707,237.836174 C306.865463,240.101478 307.738244,242.138174 312.684,240.932783 C316.087706,240.35221 319.413557,239.382943 322.596293,238.044 C324.799024,236.859391 327.708293,234.22 326.75239,232.079391 C326.039759,230.177909 324.687987,228.583538 322.92878,227.569565 C322.097561,227.257826 317.546634,230.292087 317.546634,230.292087 Z" id="Path" fill="#061C3D" fill-rule="nonzero"></path>
                <path d="M323.947024,199.118174 C323.884681,199.712311 323.884681,200.311341 323.947024,200.905478 L325.464,224.09887 C325.651024,226.821391 326.835512,230.333652 324.300293,232.287217 C322.97838,233.252987 321.295354,233.580487 319.707805,233.18087 L319.707805,233.18087 C319.083976,233.017105 318.516476,232.686629 318.066146,232.22487 C317.979089,232.144597 317.902309,232.053848 317.837561,231.954696 C316.092,229.751739 315.759512,224.701565 315.115317,221.958261 C314.429561,218.674609 311.707317,209.717304 311.39561,206.371304 C309.608488,187.251304 313.473659,175.800087 314.699707,162.312174 L314.699707,162.104348 C314.845171,160.52487 314.990634,160.857391 315.136098,161.273043 C315.281561,161.688696 315.385463,162.291391 315.427024,160.753478 L315.427024,160.462522 C317.681625,159.097265 320.344187,158.56764 322.949561,158.966174 C328.123902,159.527304 330.679902,166.447913 330.679902,166.447913 C330.043456,170.665825 329.696304,174.922344 329.640878,179.187652 C329.724,185.422435 324.17561,197.97513 323.947024,199.118174 Z" id="Path" fill="#151F5B" fill-rule="nonzero"></path>
                <path d="M325.817268,240.101478 C325.817268,240.101478 318.751902,247.126 318.751902,249.453652 C318.751902,251.781304 323.157366,252.363217 327.666732,249.744609 C330.792208,248.189288 333.727815,246.278509 336.415317,244.050174 C338.098537,242.283652 339.07522,238.625913 337.163415,236.984087 C335.786483,235.642831 333.98732,234.820273 332.072195,234.656435 C330.825366,234.656435 325.817268,240.101478 325.817268,240.101478 Z" id="Path" fill="#061C3D" fill-rule="nonzero"></path>
                <path d="M345.704195,164.182609 C345.742707,164.874827 345.742707,165.568651 345.704195,166.26087 C345.163902,176.797652 340.612976,189.475043 340.135024,193.278261 C339.657073,197.081478 338.576488,211.795565 338.056976,221.771217 C337.599805,230.79087 337.703707,236.319043 336.789366,238.792174 C335.217441,239.790615 333.428543,240.396479 331.573463,240.558742 L331.365659,240.558742 C330.915508,240.56155 330.474536,240.431414 330.098049,240.184609 C328.207024,238.896087 326.378341,216.534 326.274439,208.719739 C326.060011,203.036884 325.546716,197.36925 324.736683,191.740348 C323.593756,179.104522 323.240488,170.022522 323.115805,166.302435 C323.115805,165.076261 323.115805,164.452783 323.115805,164.452783 C327.507363,163.476026 331.946452,162.726854 336.415317,162.208261 C339.615667,162.208261 342.780239,162.88143 345.704195,164.182609 Z" id="Path" fill="#222A72" fill-rule="nonzero"></path>
                <path d="M347.699209,122.180957 C347.702026,122.830946 347.632326,123.479226 347.491317,124.113739 C347.17961,126.192 346.909463,128.270261 346.701659,130.348522 C346.161366,135.585739 345.912,140.947652 345.849659,145.87313 C345.683415,156.908696 346.34839,165.699739 346.34839,165.699739 C340.802633,167.723559 334.863453,168.434911 328.996683,167.778 C326.871015,167.611269 324.775702,167.171209 322.762537,166.468696 L322.762537,166.468696 L322.533951,166.468696 L322.201463,166.323217 C320.619333,165.728828 319.145196,164.879358 317.837561,163.808522 C316.948896,163.088635 316.171604,162.24123 315.530927,161.293826 C315.530927,161.293826 315.427024,161.127565 315.385463,161.023652 C315.343902,160.919739 316.258244,136.31313 316.52839,127.189565 C316.798537,118.066 312.143707,117.006087 317.858341,109.794522 C318.107707,109.503565 318.606439,108.984 318.62722,108.984 C324.528878,103.268783 334.39961,108.402087 337.329659,110.168609 C340.619497,111.776531 343.53058,114.06455 345.870439,116.881391 C346.998152,118.424253 347.635358,120.270891 347.699209,122.180957 L347.699209,122.180957 Z" id="Path" fill="#222A72" fill-rule="nonzero"></path>
                <polygon id="Path" fill="#FFFFFF" fill-rule="nonzero" opacity="0.34" points="344.145659 166.406348 342.691024 136.541739 345.537951 137.622435 346.369171 165.637391"></polygon>
                <path d="M344.540488,139.451304 C343.356,133.341217 349.486244,124.155304 342.337756,115.530522 C340.259707,112.974261 338.805073,112.911913 335.750341,111.145391 C332.599785,109.337818 328.9837,108.506033 325.360098,108.755391 C322.861338,108.584164 320.352556,108.880174 317.962244,109.628261 C323.822341,103.081739 334.586634,108.235826 337.516683,109.981565 C340.797593,111.603683 343.705923,113.889538 346.057463,116.694348 L346.057463,116.694348 C347.120223,118.093835 347.735852,119.781555 347.823805,121.536696 C347.146156,127.577164 346.049068,133.563156 344.540488,139.451304 L344.540488,139.451304 Z" id="Path" fill="#FFFFFF" fill-rule="nonzero" opacity="0.34"></path>
                <path d="M327.271902,113.431478 C330.430537,115.28113 334.752878,112.475478 335.417854,111.353217 C335.707164,110.529826 335.875167,109.668722 335.916585,108.796957 C336.101323,106.473244 336.526124,104.174904 337.184195,101.938696 C336.653234,102.533472 335.902857,102.886185 335.106146,102.915478 C332.134537,102.582957 328.061561,99.7565217 327.458927,102.063391 C327.458927,102.063391 327.687512,106.98887 327.666732,107.051217 C326.939415,110.02313 324.17561,111.623391 327.271902,113.431478 Z" id="Path" fill="url(#linearGradient-23)" fill-rule="nonzero"></path>
                <path d="M327.479707,101.959478 C330.604853,102.000344 333.717515,102.36248 336.768585,103.040174 C336.076668,104.841077 335.765344,106.765819 335.854244,108.693043 L335.480195,111.062261 C334.984822,111.791938 334.34029,112.408202 333.589171,112.870348 C332.634925,113.398175 331.614638,113.796546 330.55522,114.054957 C330.679902,114.054957 333.360585,108.963217 331.220195,108.713826 L331.220195,108.713826 C331.051287,108.568165 330.839996,108.480725 330.617561,108.464435 C328.643333,107.60468 327.335251,105.690809 327.251122,103.538957 L327.479707,101.959478 Z" id="Path" fill="url(#linearGradient-24)" fill-rule="nonzero"></path>
                <path d="M323.572976,90.6121739 C323.276805,91.0267861 323.103909,91.516709 323.074244,92.0253913 C323.015378,93.5224431 323.05008,95.0217106 323.178146,96.5144348 C322.994308,97.3856211 322.862465,98.2669757 322.783317,99.1538261 C322.783317,100.525478 324.17561,107.279826 328.02,107.46687 C330.776273,107.566309 333.431332,106.42177 335.25161,104.349478 C336.443878,102.931672 337.553987,101.446748 338.576488,99.902 C339.598921,97.9221061 340.386976,95.8297103 340.924683,93.6672174 C341.298732,91.4226957 340.197366,86.9752174 338.451805,86.6011304 L336.706244,86.2062609 C336.455057,85.4977442 335.897713,84.9403425 335.189268,84.6891304 C333.11122,83.8162609 331.822829,84.6891304 330.098049,85.7490435 C328.373268,86.8089565 325.464,84.9177391 324.092488,85.8945217 C323.240488,86.5803478 324.17561,89.864 323.572976,90.6121739 Z" id="Path" fill="url(#linearGradient-25)" fill-rule="nonzero"></path>
                <path d="M337.163415,101.606174 C337.80761,101.793217 338.451805,101.211304 338.742732,100.670957 C340.509073,97.99 339.823317,96.181913 341.901366,93.7087826 L342.296195,93.7087826 C342.337863,93.5733653 342.337863,93.4285478 342.296195,93.2931304 C342.179668,93.1820378 342.019675,93.1287015 341.859805,93.1476522 C340.36361,93.1476522 338.22322,93.0229565 337.703707,94.6647826 C337.906286,94.6632458 338.103639,94.7290369 338.26478,94.8518261 C338.954441,95.5239466 339.092044,96.5818777 338.597268,97.408087 C338.060507,98.2185313 337.594681,99.0737913 337.204976,99.9643478 C337.025115,100.494772 337.010621,101.067327 337.163415,101.606174 Z" id="Path" fill="#151F5B" fill-rule="nonzero"></path>
                <path d="M297.348,115.426609 L295.934927,115.509739" id="Path"></path>
                <path d="M324.030146,83.6292174 C325.130993,81.4444921 327.150941,79.8664853 329.536976,79.3272174 C332.587267,79.0655249 335.640642,79.7943286 338.244,81.4054783 C339.372158,81.8879463 340.390296,82.5950585 341.23639,83.4837391 C341.798996,84.185618 342.203072,85.0009422 342.420878,85.8737391 C343.544352,88.8351499 343.040096,92.1683109 341.090927,94.6647826 C339.756855,94.8935398 338.393584,94.8935398 337.059512,94.6647826 L336.851707,95.7870435 L335.521756,93.0853043 C335.439329,92.8285969 335.279669,92.6035983 335.064585,92.4410435 C334.761199,92.2721046 334.411095,92.2064535 334.067122,92.254 C331.779718,92.2371715 329.57178,91.4127906 327.832976,89.9263478 C327.250722,89.3154765 326.541292,88.8401093 325.754927,88.533913 C324.570439,88.2429565 323.489854,90.6121739 323.198927,91.6513043 C322.870694,88.9487725 323.154785,86.2070118 324.030146,83.6292174 L324.030146,83.6292174 Z" id="Path" fill="#603603" fill-rule="nonzero"></path>
                <path d="M327.043317,108.713826 C327.043317,108.713826 326.004293,112.163739 327.271902,113.431478 C328.539512,114.699217 333.256683,113.909478 335.480195,111.062261 L326.648488,139.804609 C326.648488,139.804609 323.863902,116.257913 324.570439,113.20287 C324.938805,111.49715 325.798458,109.936613 327.043317,108.713826 Z" id="Path" fill="#FFFFFF" fill-rule="nonzero"></path>
                <path d="M345.704195,118.169913 C345.704195,118.169913 338.888195,126.773913 339.698634,130.930435 C340.509073,135.086957 347.699122,152.315739 347.699122,152.315739 L339.636293,174.158261 L348.738146,177.005478 C348.738146,177.005478 356.177561,155.869565 356.821756,153.645826 C357.465951,151.422087 349.73561,120.705391 347.719902,119.437652 L345.704195,118.169913 Z" id="Path" fill="#222A72" fill-rule="nonzero"></path>
                <path d="M338.119317,177.836783 C337.890732,178.148522 337.745268,178.68887 338.119317,178.834348 C338.247683,178.875678 338.385781,178.875678 338.514146,178.834348 L340.093463,178.439478 C340.165138,179.239095 339.910291,180.033699 339.386927,180.642435 C338.869815,181.228223 338.267334,181.732677 337.599805,182.138783 C337.080293,182.492087 336.498439,182.907739 336.477659,183.531217 C336.456878,184.154696 337.142634,184.695043 337.786829,184.90287 C339.079543,185.167706 340.394835,185.306905 341.714341,185.318522 C342.351071,185.439134 342.999319,185.487932 343.646927,185.464 C344.969431,185.206072 346.08484,184.32295 346.639317,183.094783 C347.155802,181.864593 347.471524,180.559475 347.574439,179.229217 L347.990049,175.862435 C348.073278,175.478958 348.073278,175.082086 347.990049,174.698609 C347.719902,173.992 346.888683,173.701043 346.161366,173.493217 C345.434049,173.285391 343.79239,172.454087 343.106634,172.661913 C342.420878,172.869739 342.150732,173.971217 341.755902,174.407652 C340.592195,175.633826 339.179122,176.527478 338.119317,177.836783 Z" id="Path" fill="url(#linearGradient-26)" fill-rule="nonzero"></path>
                <polygon id="Path" fill="#222A72" fill-rule="nonzero" points="327.666732 113.701652 326.544585 115.322696 327.064098 116.777478 325.671805 130.784957 326.648488 139.804609 329.246049 131.36687 328.207024 117.047652 329.246049 115.800696 328.601854 114.054957"></polygon>
                <path d="M322.762537,166.26087 L322.533951,166.26087 C320.892797,165.580012 319.348642,164.685569 317.941463,163.600696 C317.006977,162.931011 316.221553,162.07474 315.634829,161.086 C315.634829,161.086 315.530927,160.919739 315.489366,160.815826 C315.447805,160.711913 316.362146,136.105304 316.632293,126.981739 C316.902439,117.858174 312.24761,116.798261 317.962244,109.586696 C318.21161,109.295739 318.710341,108.776174 318.731122,108.776174 C318.751902,108.776174 317.421951,110.646609 317.962244,118.169913 C318.502537,125.693217 318.62722,151.650696 318.273951,154.414783 C318.152642,157.055976 318.305854,159.702628 318.731122,162.312174 L322.762537,166.26087 Z" id="Path" fill="#FFFFFF" fill-rule="nonzero" opacity="0.34"></path>
                <polygon id="Path" fill="#222A72" fill-rule="nonzero" points="337.620585 112.142957 337.620585 122.347217 334.358049 126.10887 336.477659 130.743391 325.671805 143.587043 335.480195 111.062261"></polygon>
                <polygon id="Path" fill="#FFFFFF" fill-rule="nonzero" opacity="0.34" points="334.358049 126.10887 335.230829 130.722609 326.419902 141.113913 325.671805 143.587043 336.477659 130.743391"></polygon>
                <polygon id="Path" fill="#FFFFFF" fill-rule="nonzero" opacity="0.34" points="334.358049 126.10887 337.620585 122.347217 337.620585 111.519478 336.768585 121.474348 333.609951 124.945043"></polygon>
                <polygon id="Path" fill="#FFFFFF" fill-rule="nonzero" opacity="0.34" points="324.487317 107.986435 319.707805 120.310522 322.097561 124.758 320.102634 127.335043 326.004293 142.464783 321.453366 127.854609 322.845659 125.215217 320.78839 119.915652 325.256195 108.755391"></polygon>
                <polygon id="Path" fill="#FFFFFF" fill-rule="nonzero" opacity="0.34" points="342.691024 133.050261 350.275902 151.463652 343.065073 172.64113 340.529854 171.809826 347.699122 152.378087 342.691024 139.451304"></polygon>
                <path d="M319.707805,233.18087 L319.707805,233.18087 L318.066146,232.22487 C317.979089,232.144597 317.902309,232.053848 317.837561,231.954696 C316.092,229.751739 315.759512,224.701565 315.115317,221.958261 C314.429561,218.674609 311.707317,209.717304 311.39561,206.371304 C309.608488,187.251304 313.473659,175.800087 314.699707,162.312174 L314.699707,162.104348 L315.136098,161.273043 L315.406244,160.732696 L315.406244,160.732696 L317.941463,163.600696 C317.941463,163.600696 311.707317,194.026435 313.037268,199.24287 C314.36722,204.459304 319.624683,232.765217 319.707805,233.18087 Z" id="Path" fill="#FFFFFF" fill-rule="nonzero" opacity="0.34"></path>
                <path d="M331.303317,240.662655 C330.853167,240.665463 330.412195,240.535327 330.035707,240.288522 C328.144683,239 326.316,216.637913 326.212098,208.823652 C325.99767,203.140797 325.484375,197.473163 324.674341,191.844261 C323.531415,179.208435 323.178146,170.126435 323.053463,166.406348 L325.671805,167.175304 C325.671805,167.175304 328.248585,201.861478 328.477171,204.584 C328.705756,207.306522 330.929268,236.028087 331.303317,240.662655 Z" id="Path" fill="#FFFFFF" fill-rule="nonzero" opacity="0.34"></path>
                <path d="M321.016976,162.582348 C320.182543,163.391847 319.567577,164.400209 319.229854,165.512696 C318.771776,166.65837 318.713208,167.925022 319.06361,169.108087 C319.100123,169.236315 319.172166,169.351595 319.271415,169.440609 C319.427776,169.484012 319.593004,169.484012 319.749366,169.440609 C320.62591,169.379974 321.477857,169.124364 322.243024,168.692435 C322.352316,168.650922 322.441553,168.569113 322.49239,168.463826 C322.513101,168.360945 322.513101,168.254968 322.49239,168.152087 C322.297754,167.370748 322.206923,166.567163 322.222244,165.762087 C322.211189,165.46601 322.253421,165.170356 322.346927,164.889217 C322.676108,164.312999 323.235568,163.904703 323.884683,163.766957 C324.151954,163.709253 324.401415,163.588074 324.612,163.413652 C324.843509,163.136709 324.921472,162.762449 324.819805,162.416087 C324.17561,160.608 322.097561,161.64713 321.016976,162.582348 Z" id="Path" fill="#222A72" fill-rule="nonzero"></path>
                <path d="M325.713366,302.01287 C328.85122,300.225565 330.430537,296.630174 331.490341,293.159478 C331.993539,292.107202 331.930998,290.871889 331.324098,289.875826 C330.503213,289.195538 329.409987,288.941452 328.373268,289.19 C323.113869,289.650816 317.948566,290.868776 313.037268,292.806174 C312.551259,292.965879 312.094897,293.204615 311.686537,293.512783 C309.068195,295.715739 310.896878,300.869826 313.598341,302.137565 C317.468277,303.832652 321.879134,303.787252 325.713366,302.01287 L325.713366,302.01287 Z" id="Path" fill="url(#linearGradient-27)" fill-rule="nonzero"></path>
                <path d="M283.341951,273.270522 L285.191415,290.520087 C285.283891,291.322141 285.668583,292.06201 286.272,292.598348 L300.153366,304.735391 C301.27836,305.714327 302.970296,305.650646 304.018537,304.589913 L320.310439,290.042087 C320.825241,289.573416 321.118672,288.909441 321.118672,288.213217 C321.118672,287.516994 320.825241,286.853018 320.310439,286.384348 L310.709854,277.780348 L308.236976,259.928087 C308.165297,259.383705 307.826257,258.911194 307.333535,258.668984 C306.840812,258.426774 306.259639,258.44693 305.784878,258.722696 L284.692683,270.610348 C283.749322,271.145511 283.217437,272.193023 283.341951,273.270522 Z" id="Path" fill="url(#linearGradient-28)" fill-rule="nonzero"></path>
                <path d="M285.378439,272.501565 L287.227902,289.75113 C287.320378,290.553185 287.705071,291.293053 288.308488,291.829391 L302.189854,303.966435 C303.313132,304.94066 304.996863,304.886341 306.055024,303.841739 L321.536488,289.730348 C322.058227,289.261304 322.356207,288.592706 322.356207,287.891087 C322.356207,287.189468 322.058227,286.52087 321.536488,286.051826 L311.956683,277.447826 L309.463024,259.595565 C309.381872,259.056496 309.041635,258.59146 308.552446,258.350986 C308.063256,258.110512 307.487269,258.125155 307.010927,258.390174 L286.770732,269.862174 C285.810447,270.374278 285.25895,271.419759 285.378439,272.501565 Z" id="Path" fill="url(#linearGradient-29)" fill-rule="nonzero"></path>
                <path d="M290.490439,289.293913 L309.816293,278.902609 C310.173358,278.693661 310.376214,278.296022 310.335805,277.884261 L308.40322,261.486783 C308.364488,261.14649 308.157311,260.848459 307.851851,260.693621 C307.546391,260.538783 307.183564,260.547878 306.886244,260.717826 L287.601951,271.524783 C287.244635,271.731708 287.047639,272.133949 287.10322,272.54313 L288.994244,288.545739 C289.041879,288.875994 289.248268,289.161959 289.546683,289.311182 C289.845099,289.460405 290.197681,289.453954 290.490439,289.293913 Z" id="Path" fill="#0E3585" fill-rule="nonzero"></path>
                <path d="M299.862439,289.875826 C298.911597,289.597361 297.922688,289.471105 296.93239,289.501739 L294.542634,289.501739 C294.230927,289.501739 293.836098,289.501739 293.815317,289.875826 C293.794537,290.249913 294.043902,290.374609 293.815317,290.561652 C293.733332,290.581099 293.647936,290.581099 293.565951,290.561652 L292.693171,290.686348 C292.526927,291.102 292.859415,291.538435 293.212683,291.767043 C293.607501,291.959527 293.960558,292.227878 294.251707,292.556783 C294.106244,292.556783 293.94,292.681478 293.94,292.847739 C293.964741,293.014855 294.045307,293.168678 294.168585,293.284174 C294.636616,293.961493 295.246435,294.528825 295.955707,294.946783 C296.702681,295.309058 297.516041,295.514187 298.345463,295.549478 C299.48172,295.626709 300.608547,295.807576 301.711902,296.089826 C302.048939,296.190386 302.399235,296.239432 302.750927,296.235304 C303.480519,296.180851 304.127726,295.746705 304.454927,295.092261 C304.75216,294.405154 304.656904,293.611268 304.205561,293.014 C303.965275,292.746255 303.693102,292.508952 303.395122,292.307391 L301.732683,291.102 C301.218137,290.663711 300.669144,290.267562 300.091024,289.917391 L299.862439,289.875826 Z" id="Path" fill="url(#linearGradient-30)" fill-rule="nonzero"></path>
                <ellipse id="Oval" fill="url(#linearGradient-31)" fill-rule="nonzero" opacity="0.44" cx="326.419902" cy="409.895391" rx="37.7165854" ry="20.7410435"></ellipse>
                <path d="M354.328098,404.055478 C355.138537,406.279217 355.637268,408.69 354.660585,409.646 C353.683902,410.602 348.758927,409.646 347.387415,409.438174 C344.353463,408.980957 340.903902,408.419826 338.742732,406.029826 C338.364735,405.686428 338.16552,405.188338 338.202439,404.678957 C338.327122,404.076261 338.971317,403.785304 339.53239,403.577478 C341.695299,403.02501 343.819501,402.330756 345.89122,401.499217 C347.457866,400.334921 349.310584,399.61674 351.252585,399.420957 C351.534601,399.424607 351.809278,399.511356 352.042244,399.670348 C352.200999,399.797017 352.334875,399.952047 352.437073,400.127565 C353.200845,401.368324 353.834543,402.684601 354.328098,404.055478 L354.328098,404.055478 Z" id="Path" fill="url(#linearGradient-32)" fill-rule="nonzero"></path>
                <path d="M344.291122,402.538348 C344.104098,402.829304 344.124878,403.182609 344.561268,403.681391 C344.88027,404.024647 345.270317,404.294161 345.704195,404.47113 C347.648845,405.378833 349.804447,405.738137 351.938341,405.510261 C352.671463,405.500283 353.369042,405.192718 353.870927,404.658174 C354.86839,403.286522 353.870927,400.501652 353.247512,399.109217 C352.946945,398.249685 352.294522,397.558886 351.453604,397.20979 C350.612686,396.860694 349.662894,396.886355 348.842049,397.280348 C347.948488,397.758348 347.803024,398.652 347.345854,399.483304 C346.802244,400.310628 346.095044,401.0179 345.267805,401.561565 C344.893363,401.834299 344.563828,402.163868 344.291122,402.538348 L344.291122,402.538348 Z" id="Path" fill="url(#linearGradient-33)" fill-rule="nonzero"></path>
                <path d="M318.62722,414.592261 C318.62722,415.278087 318.855805,415.94313 318.980488,416.670522 C319.105171,417.397913 319.645463,419.434609 318.980488,420.141217 C318.315512,420.847826 317.006341,420.432174 316.403707,420.411391 C314.718293,420.342251 313.038782,420.16873 311.374829,419.891826 C309.715119,419.67348 308.079946,419.2977 306.491415,418.769565 C304.683512,418.125304 303.997756,416.358783 303.104195,414.716957 C302.8512,414.318707 302.681541,413.873306 302.605463,413.407652 C302.533847,412.936799 302.715443,412.463022 303.083415,412.160696 C303.383576,411.998659 303.719005,411.913009 304.060098,411.911304 C308.507122,411.516435 312.974927,411.329391 317.421951,411.329391 C317.699285,411.291037 317.980938,411.357751 318.21161,411.516435 C318.410577,411.7529 318.50106,412.062083 318.460976,412.368522 C318.47212,413.112415 318.527633,413.854981 318.62722,414.592261 L318.62722,414.592261 Z" id="Path" fill="url(#linearGradient-34)" fill-rule="nonzero"></path>
                <path d="M312.600878,411.495652 C311.973968,411.724087 311.314455,411.850389 310.647512,411.869739 C310.003317,411.869739 308.382439,411.267043 308.40322,412.493217 C308.436158,412.72769 308.529226,412.949643 308.673366,413.137478 C309.880048,415.591394 312.504246,417.016103 315.21922,416.691304 C315.846828,416.774324 316.482635,416.774324 317.110244,416.691304 C319.437659,416.192522 319.562341,412.534783 318.336293,410.851391 C317.546862,409.817678 316.136556,409.486832 314.969854,410.061652 C314.65511,410.259683 314.356345,410.482043 314.076293,410.726696 C313.624472,411.05337 313.127439,411.312414 312.600878,411.495652 L312.600878,411.495652 Z" id="Path" fill="url(#linearGradient-35)" fill-rule="nonzero"></path>
                <path d="M325.110732,372.008696 L336.165951,358.749391 C336.284319,363.737987 337.045626,368.690475 338.431024,373.484261 C340.509073,379.365739 348.260195,401.187478 348.260195,401.187478 L354.078732,401.187478 L350.525268,371.509913 C350.525268,371.509913 348.239415,353.366696 353.185171,342.954609 C358.130927,332.542522 354.909951,318.805217 354.909951,318.805217 L322.450829,328.635391 L312.060585,369.826522 C312.060585,369.826522 311.291707,374.918261 316.029659,386.826696 C320.76761,398.73513 314.117854,410.560435 314.491902,411.516435 C314.865951,412.472435 318.793463,412.825739 318.793463,412.825739 C318.793463,412.825739 323.32361,378.118783 325.110732,372.008696 Z" id="Path" fill="#0E3585" fill-rule="nonzero"></path>
                <path d="M332.944976,333.103652 C332.944976,333.103652 317.608976,369.078348 318.398634,372.154174 C319.188293,375.23 317.401171,411.911304 317.401171,411.911304 L314.429561,411.620348 C314.429561,411.620348 311.520293,381.256957 312.019024,369.951217 C312.517756,358.645478 320.081854,338.652609 322.409268,328.697739 L332.944976,333.103652 Z" id="Path" fill="#071B3D" fill-rule="nonzero"></path>
                <path d="M343.833951,260.613913 C340.079984,261.462917 336.375478,262.517491 332.737171,263.77287 C327.812195,265.497826 324.819805,271.524783 322.139122,275.743652 C320.537475,278.060152 319.290747,280.602896 318.440195,283.287739 C317.566975,286.022627 317.737238,288.984019 318.918146,291.600783 C319.906341,293.210105 321.01064,294.745166 322.222244,296.193739 C324.817582,300.160489 326.036964,304.870558 325.692585,309.598522 C325.329463,314.292373 324.300928,318.910756 322.637854,323.315043 C321.972878,325.227043 319.853268,329.383565 320.850732,331.399478 C321.848195,333.415391 325.006829,332.688 326.814732,332.688 C331.947512,332.688 337.558244,333.311478 342.213073,330.609739 C346.72233,328.008342 351.442265,325.79065 356.323037,323.980087 L356.323037,269.134783 C356.326948,267.098999 355.429049,265.166035 353.870927,263.856 C351.169571,261.343562 347.494435,260.15644 343.833951,260.613913 Z" id="Path" fill="url(#linearGradient-36)" fill-rule="nonzero"></path>
                <path d="M332.072195,269.342609 C332.072195,269.342609 329.038244,267.014957 326.316,272.252174 C323.593756,277.489391 320.081854,299.269565 320.081854,299.269565 L304.413366,292.224261 C304.413366,292.224261 299.654634,294.302522 301.026146,297.461478 C302.397659,300.620435 321.661171,313.297826 325.505561,311.552087 C329.349951,309.806348 333.069659,302.677913 333.069659,302.677913 L339.823317,276.84513 C339.823317,276.84513 341.070146,268.656783 332.072195,269.342609 Z" id="Path" fill="url(#linearGradient-37)" fill-rule="nonzero"></path>
                <path d="M336.165951,358.749391 C336.165951,358.749391 346.722439,347.256609 347.345854,345.053652 C347.345854,345.053652 344.935317,362.573391 347.345854,372.071043 C349.75639,381.568696 354.078732,401.166696 354.078732,401.166696 L348.260195,401.166696 C347.26669,400.661044 346.517945,399.777434 346.182146,398.714348 L338.472585,373.463478 C338.472585,373.463478 335.66722,364.194435 336.165951,358.749391 Z" id="Path" fill="#071B3D" fill-rule="nonzero"></path>
                <path d="M332.363122,263.93913 L332.217659,257.995304 C330.415896,258.085656 328.610476,257.917693 326.856293,257.496522 C326.193196,255.349182 325.856944,253.11428 325.858821,250.86687 C325.858821,249.931652 326.856293,247.770261 326.918634,246.56487 C326.980976,245.359478 326.128976,244.798348 326.170537,243.78 C326.621884,241.896512 327.191003,240.043216 327.874537,238.231043 C327.874537,238.231043 346.452293,238.91687 346.722439,242.657739 C346.992585,246.398609 343.750829,255.64687 343.750829,255.64687 L343.543024,260.90487 C343.543024,260.90487 340.155805,267.077304 332.363122,263.93913 Z" id="Path" fill="url(#linearGradient-38)" fill-rule="nonzero"></path>
                <path d="M330.950049,243.156522 C329.85147,242.015119 328.91455,240.728472 328.165463,239.332522 C324.944488,233.451043 332.841073,230.125826 337.080293,229.751739 C341.388846,229.286743 345.736982,230.141964 349.548585,232.204087 C353.346091,234.283436 356.125123,237.828942 357.237366,242.013478 C358.692,248.040435 356.032098,254.483043 357.756878,260.530783 C358.893018,263.37313 360.284058,266.106803 361.912976,268.698348 C365.07161,274.93313 365.279415,283.246174 360.499902,288.504174 C358.962146,290.166783 356.925659,291.538435 356.198341,293.679043 C355.471024,295.819652 356.198341,298.999391 354.660585,300.869826 C353.122829,302.740261 349.444683,302.075217 347.283512,300.433391 C344.546336,298.164993 342.405998,295.260972 341.049366,291.97487 C337.912586,285.031756 336.706517,277.370998 337.558244,269.799826 C338.290699,266.19815 338.542259,262.515225 338.306341,258.847391 C337.69241,255.719827 336.314633,252.792644 334.295707,250.326522 C332.487805,248.185913 332.71639,245.006174 330.950049,243.156522 Z" id="Path" fill="#FFA44B" fill-rule="nonzero"></path>
                <path d="M331.303317,252.384 C332.047097,251.358774 332.667841,250.249691 333.15278,249.079565 C333.806699,249.510171 334.2627,250.183028 334.42039,250.95 C334.648976,252.051478 334.42039,253.236087 334.898341,254.21287 C335.376293,255.189652 336.041268,255.293565 336.394537,256.29113 C337.100314,258.682515 337.354017,261.184555 337.142634,263.668957 C336.864312,272.438814 337.645771,281.210201 339.470049,289.792696 C340.467512,293.949217 342.129951,298.396696 345.828878,300.558087 C346.549469,301.052308 347.407477,301.306828 348.280976,301.285478 C346.888683,296.567826 343.189756,292.806174 341.755902,288.109304 C340.759091,284.244646 340.759091,280.190224 341.755902,276.325565 C342.789929,272.494982 343.608577,268.609474 344.208,264.687304 C344.953352,257.258163 342.83502,249.824662 338.285561,243.904696 C336.623122,241.826435 334.545073,241.618609 332.051415,240.537913 C330.309502,239.757877 328.804208,238.532012 327.687512,236.984087 C327.478738,238.262157 327.768869,239.571598 328.497951,240.641826 C329.103696,241.478588 329.800668,242.245336 330.576,242.927913 C331.061518,243.5058 331.293734,244.254961 331.220195,245.006174 C331.365659,247.541652 331.365659,249.952435 331.303317,252.384 Z" id="Path" fill="#DD8536" fill-rule="nonzero"></path>
                <path d="M332.71639,250.430435 C332.71639,250.430435 333.817756,249.723826 334.00478,250.617478 C334.191805,251.51113 334.108683,253.152957 333.360585,253.506261 C332.983692,253.734248 332.51143,253.734248 332.134537,253.506261 C332.076921,252.449013 332.27658,251.393565 332.71639,250.430435 Z" id="Path" fill="url(#linearGradient-39)" fill-rule="nonzero"></path>
                <path d="M115.123902,268.55287 C114.887632,268.126791 114.59396,267.735189 114.251122,267.389043 C113.293588,266.69925 112.123994,266.368199 110.947024,266.453826 L110.676878,266.453826 C110.522195,266.566811 110.423741,266.741017 110.406732,266.931826 L109.970341,269.259478 C109.866007,269.66644 109.823968,270.086869 109.845659,270.506435 C109.991122,271.711826 111.113268,272.584696 111.923707,273.33287 C112.403183,273.857523 112.90952,274.356975 113.440683,274.829217 C113.981165,275.291855 114.685516,275.516671 115.394049,275.452696 C116.057363,275.303937 116.616193,274.85989 116.911024,274.247304 C117.303656,273.469687 117.303656,272.551791 116.911024,271.774174 C116.370732,270.693478 115.768098,269.633565 115.123902,268.55287 Z" id="Path" fill="url(#linearGradient-40)" fill-rule="nonzero"></path>
                <ellipse id="Oval" fill="url(#linearGradient-41)" fill-rule="nonzero" opacity="0.44" cx="110.552195" cy="413.324522" rx="35.5554146" ry="19.5564348"></ellipse>
                <path d="M84.2440976,407.81713 C83.496,409.895391 83.0180488,412.160696 83.9323902,413.07513 C84.8467317,413.989565 89.501561,413.07513 90.7899512,412.867304 C93.6576585,412.451652 96.8994146,411.932087 98.9359024,409.666783 C99.2912019,409.335326 99.4814381,408.863492 99.4554146,408.378261 C99.3307317,407.837913 98.7280976,407.546957 98.2085854,407.359913 C96.164591,406.795546 94.1586662,406.101384 92.2030244,405.281652 C90.7393319,404.143856 88.9938545,403.425479 87.1533659,403.203389 C86.8867237,403.20287 86.6260813,403.282519 86.4052683,403.432 C86.248817,403.546917 86.1208448,403.696233 86.0312195,403.868435 C85.2982979,405.118138 84.6992742,406.441698 84.2440976,407.81713 L84.2440976,407.81713 Z" id="Path" fill="#439693" fill-rule="nonzero"></path>
                <path d="M117.846146,415.132609 C117.742244,415.77687 117.617561,416.42113 117.492878,417.106957 C117.368195,417.792783 116.869463,419.704783 117.492878,420.390609 C118.116293,421.076435 119.363122,420.64 119.924195,420.619217 C121.512283,420.563938 123.095015,420.40426 124.662146,420.141217 C126.221162,419.923661 127.757948,419.568982 129.254634,419.081304 C130.979415,418.478609 131.62361,416.816 132.454829,415.257304 C132.700736,414.887853 132.863785,414.469554 132.93278,414.03113 C133.003354,413.582891 132.829,413.131109 132.47561,412.846522 C132.192359,412.70129 131.879533,412.623076 131.561268,412.617913 C127.405171,412.271536 123.207512,412.084493 118.968293,412.056783 C118.704663,412.028794 118.439639,412.095057 118.220195,412.243826 C118.043329,412.47574 117.954916,412.763111 117.970829,413.054348 C117.973052,413.749036 117.931408,414.44317 117.846146,415.132609 L117.846146,415.132609 Z" id="Path" fill="#439693" fill-rule="nonzero"></path>
                <path d="M111.778244,377.599217 L101.388,365.129652 C101.290662,369.833808 100.592317,374.506214 99.3099512,379.033217 C97.3565854,384.582174 88.9197073,407.858696 88.9197073,407.858696 L84.4519024,407.858696 L87.839122,377.245913 C87.839122,377.245913 89.9171707,360.141826 85.3246829,350.228522 C80.7321951,340.315217 83.7038049,327.471565 83.7038049,327.471565 L116.827902,340.294435 L124.142634,375.62487 C124.142634,375.62487 124.849171,380.425652 120.402146,391.648261 C115.955122,402.87087 122.189268,414.03113 121.836,414.924783 C121.482732,415.818435 117.679902,416.150957 117.679902,416.150957 C117.679902,416.150957 113.482244,383.356 111.778244,377.599217 Z" id="Path" fill="#0E3585" fill-rule="nonzero"></path>
                <path d="M94.1356098,272.605478 C94.1356098,272.605478 105.648,275.307217 108.868976,277.447826 C112.089951,279.588435 114.438146,279.110435 117.638341,286.571391 C119.298689,290.634291 121.388614,294.508016 123.872488,298.126522 L114.001756,275.639739 L117.825366,271.483217 L130.917073,297.606957 C131.910105,299.718278 131.864424,302.171476 130.793477,304.244356 C129.72253,306.317237 127.748236,307.77382 125.451805,308.185304 C122.893804,308.588535 120.273775,308.242049 117.908488,307.187739 L116.620098,306.605826 C116.620098,306.605826 115.497951,318.368783 115.497951,322.213565 C115.497951,326.702609 116.620098,339.982696 116.620098,339.982696 C116.620098,339.982696 101.658146,341.915478 95.7357073,338.548696 C91.4796232,336.111845 87.031671,334.026654 82.4361951,332.313913 L82.4361951,280.565217 C82.4423907,278.651987 83.2851489,276.837215 84.7428293,275.598174 C87.2874095,273.278187 90.718087,272.185116 94.1356098,272.605478 L94.1356098,272.605478 Z" id="Path" fill="#F0F9FD" fill-rule="nonzero"></path>
                <path d="M94.1356098,272.605478 C94.1356098,272.605478 105.648,275.307217 108.868976,277.447826 C112.089951,279.588435 114.438146,279.110435 117.638341,286.571391 C119.298689,290.634291 121.388614,294.508016 123.872488,298.126522 L114.001756,275.639739 L117.825366,271.483217 L130.917073,297.606957 C131.910105,299.718278 131.864424,302.171476 130.793477,304.244356 C129.72253,306.317237 127.748236,307.77382 125.451805,308.185304 C122.893804,308.588535 120.273775,308.242049 117.908488,307.187739 L116.620098,306.605826 C116.620098,306.605826 115.497951,318.368783 115.497951,322.213565 C115.497951,326.702609 116.620098,339.982696 116.620098,339.982696 C116.620098,339.982696 101.658146,341.915478 95.7357073,338.548696 C91.4796232,336.111845 87.031671,334.026654 82.4361951,332.313913 L82.4361951,280.565217 C82.4423907,278.651987 83.2851489,276.837215 84.7428293,275.598174 C87.2874095,273.278187 90.718087,272.185116 94.1356098,272.605478 L94.1356098,272.605478 Z" id="Path" fill="url(#linearGradient-42)" fill-rule="nonzero" opacity="0.44"></path>
                <path d="M107.559805,297.586174 L116.848683,306.938348 C116.848683,306.938348 115.996683,313.96287 115.768098,320.883478 C115.587334,327.386415 115.94878,333.893107 116.848683,340.336 C112.708791,340.787545 108.54382,340.968046 104.38039,340.876348 L104.214034,298.978609 C104.208596,298.462411 104.409754,297.965445 104.772788,297.59847 C105.135821,297.231496 105.630557,297.02458 106.146732,297.025043 L106.146732,297.025043 C106.674199,297.013561 107.18388,297.215955 107.559805,297.586174 L107.559805,297.586174 Z" id="Path" fill="url(#linearGradient-43)" fill-rule="nonzero" opacity="0.44"></path>
                <path d="M101.36722,365.088087 C101.36722,365.088087 91.4341463,354.28113 90.8315122,352.20287 C90.8315122,352.20287 93.0965854,368.704261 90.8315122,377.682348 C88.566439,386.660435 84.4519024,407.837913 84.4519024,407.837913 L88.608,407.837913 L99.1229268,378.991652 C99.1229268,378.991652 101.82439,370.221391 101.36722,365.088087 Z" id="Path" fill="#071B3D" fill-rule="nonzero"></path>
                <path d="M104.401171,340.938696 C104.401171,340.938696 118.947512,374.83513 118.137073,377.744696 C117.326634,380.654261 119.072195,415.153391 119.072195,415.153391 L121.877561,414.904 C121.877561,414.904 124.620585,386.265565 124.142634,375.62487 C123.664683,364.984174 119.092976,349.750522 116.848683,340.294435 L104.401171,340.938696 Z" id="Path" fill="#071B3D" fill-rule="nonzero"></path>
                <path d="M104.941463,275.785217 L105.086927,270.173913 C106.791294,270.260675 108.499231,270.099665 110.157366,269.695913 C110.769485,267.673943 111.084486,265.573727 111.092488,263.46113 C111.092488,262.567478 110.157366,260.551565 110.074244,259.304609 C109.991122,258.057652 110.822341,257.642 110.78078,256.686 C110.364167,254.906696 109.82962,253.157091 109.180683,251.448783 C109.180683,251.448783 91.6835122,252.093043 91.4133659,255.605304 C91.1432195,259.117565 94.2187317,267.867043 94.2187317,267.867043 L94.4057561,272.834087 C94.4057561,272.834087 97.6682927,278.694783 104.941463,275.785217 Z" id="Path" fill="url(#linearGradient-44)" fill-rule="nonzero"></path>
                <path d="M106.292195,256.145652 C107.317748,255.058641 108.197882,253.843094 108.910537,252.529478 C109.605199,250.876882 109.441998,248.988212 108.474146,247.479304 C107.710925,246.412383 106.697724,245.548933 105.523317,244.964609 C101.639461,242.892949 97.0527734,242.590166 92.9303415,244.133304 L93.6160976,244.548957 C90.8150161,245.982885 88.2329681,247.809399 85.9480976,249.973217 L88.2547317,249.973217 L87.2780488,252.176174 C87.9014634,251.781304 88.7119024,252.529478 88.7950244,253.25687 C88.7328381,254.000444 88.6077068,254.737403 88.4209756,255.459826 C88.3781813,256.313304 88.5273033,257.165517 88.8573659,257.953739 C89.376878,259.595565 89.9587317,261.216609 90.5821463,262.81687 C91.2895439,262.674819 92.0044937,263.023818 92.3277073,263.668957 C92.6809756,264.271652 92.826439,264.978261 93.1797073,265.539391 C93.7628639,266.5785 94.8517869,267.231926 96.0429803,267.257546 C97.2341736,267.283166 98.3501783,266.677162 98.9774634,265.664087 C99.1644878,265.331565 99.3722927,264.936696 99.725561,264.89513 C100.078829,264.853565 100.265854,264.89513 100.494439,264.89513 C100.741787,264.837774 100.966211,264.707449 101.138634,264.521043 C102.468585,263.357217 104.463512,262.151826 104.879122,260.364522 C105.00554,258.865353 105.490157,257.418482 106.292195,256.145652 L106.292195,256.145652 Z" id="Path" fill="url(#linearGradient-45)" fill-rule="nonzero"></path>
                <path d="M105.980488,264.832783 C105.274062,263.879531 104.694295,262.838639 104.255707,261.736174 C103.641248,262.147585 103.209441,262.78047 103.050439,263.502696 C102.915118,264.186626 102.873174,264.885751 102.925756,265.580957 C102.978945,265.848512 102.978945,266.123923 102.925756,266.391478 C102.696798,266.790274 102.283254,267.04779 101.82439,267.077304 C101.382048,267.11888 100.936782,267.11888 100.494439,267.077304 C99.6086842,267.200949 98.7425982,267.438449 97.9176585,267.783913 C97.0826158,268.114851 96.1465673,268.077103 95.340878,267.68 C94.8611385,267.349452 94.4689079,266.907256 94.1979512,266.391478 C93.7823415,265.747217 93.3667317,265.102957 92.951122,264.313217 C92.4040392,263.522135 91.8977209,262.703619 91.4341463,261.86087 C91.2913759,261.965489 91.1828874,262.110155 91.122439,262.276522 C90.7482716,260.821228 91.09619,259.274767 92.057561,258.12 C93.0050343,256.947196 94.2771732,256.07974 95.7149268,255.626087 C97.1327579,255.206659 98.5868543,254.921377 100.058049,254.774 L100.058049,255.418261 C101.790782,254.99999 103.481182,254.422552 105.107707,253.693304 C106.763349,252.97301 108.197717,251.825399 109.263805,250.368087 C109.473266,251.574485 109.196847,252.814762 108.494927,253.818 C107.947847,254.575833 107.320823,255.272596 106.624683,255.896261 C106.130991,256.468924 105.904298,257.224642 106.001268,257.974522 C105.980488,260.281391 105.980488,262.567478 105.980488,264.832783 Z" id="Path" fill="url(#linearGradient-46)" fill-rule="nonzero"></path>
                <path d="M104.629756,263.024696 C104.629756,263.024696 103.590732,262.33887 103.403707,263.170174 C103.216683,264.001478 103.403707,265.580957 104.027122,265.913478 C104.379557,266.122049 104.817614,266.122049 105.170049,265.913478 C105.232802,264.920608 105.047107,263.927753 104.629756,263.024696 L104.629756,263.024696 Z" id="Path" fill="url(#linearGradient-47)" fill-rule="nonzero"></path>
                <path d="M94.3849756,271.919652 L92.826439,272.480783 C92.6995402,274.387199 93.8157134,276.15815 95.5902439,276.865913 C99.1090339,277.778382 102.826382,277.552844 106.209073,276.221652 L104.837561,275.785217 C104.837561,275.785217 95.9435122,276.512609 94.3849756,271.919652 Z" id="Path" fill="url(#linearGradient-48)" fill-rule="nonzero" opacity="0.44"></path>
            </g>
        </g>
    </g>
</svg>