<?xml version="1.0" encoding="UTF-8" standalone="no"?>
<svg
   xmlns:dc="http://purl.org/dc/elements/1.1/"
   xmlns:cc="http://creativecommons.org/ns#"
   xmlns:rdf="http://www.w3.org/1999/02/22-rdf-syntax-ns#"
   xmlns:svg="http://www.w3.org/2000/svg"
   xmlns="http://www.w3.org/2000/svg"
   width="200"
   height="200"
   viewBox="0 0 52.916666 52.916668"
   version="1.1"
   id="svg8">
  <defs
     id="defs2" />
  <metadata
     id="metadata5">
    <rdf:RDF>
      <cc:Work
         rdf:about="">
        <dc:format>image/svg+xml</dc:format>
        <dc:type
           rdf:resource="http://purl.org/dc/dcmitype/StillImage" />
        <dc:title></dc:title>
      </cc:Work>
    </rdf:RDF>
  </metadata>
  <path
     style="fill:#0000ff;stroke-width:0.06977294;fill-opacity:1"
     d="M 40.971104,39.854735 H 11.945563 c -0.614002,0 -1.116367,0.502365 -1.116367,1.116368 v 2.232733 c 0,0.614002 0.502365,1.116368 1.116367,1.116368 h 29.025541 c 0.613999,0 1.116365,-0.502366 1.116365,-1.116368 v -2.232733 c 0,-0.614003 -0.502366,-1.116368 -1.116365,-1.116368 z M 45.43657,17.527397 c -1.848981,0 -3.349101,1.500118 -3.349101,3.349101 0,0.495388 0.111641,0.955889 0.307002,1.381504 l -5.05156,3.028145 c -1.074504,0.641911 -2.462983,0.279092 -3.083966,-0.809366 l -5.686491,-9.94962 c 0.746569,-0.614001 1.234978,-1.535005 1.234978,-2.581598 0,-1.848982 -1.500116,-3.3491005 -3.349099,-3.3491005 -1.848982,0 -3.3491,1.5001185 -3.3491,3.3491005 0,1.046593 0.48841,1.967597 1.23498,2.581598 l -5.686494,9.94962 c -0.620978,1.088458 -2.016437,1.451277 -3.083963,0.809366 l -5.044583,-3.028145 c 0.188387,-0.418637 0.307,-0.886116 0.307,-1.381504 0,-1.848983 -1.500117,-3.349101 -3.349099,-3.349101 -1.8489829,0 -3.3560785,1.500118 -3.3560785,3.349101 0,1.848983 1.5001181,3.349101 3.3491009,3.349101 0.18141,0 0.3628199,-0.02791 0.5372523,-0.05582 L 13.06193,37.622001 h 26.792807 l 5.044582,-13.452222 c 0.174432,0.02791 0.355843,0.05582 0.537251,0.05582 1.848984,0 3.349101,-1.500118 3.349101,-3.349101 0,-1.848983 -1.500117,-3.349101 -3.349101,-3.349101 z"
     id="path899" />
</svg>
