<?xml version="1.0" encoding="UTF-8" standalone="no"?>
<svg
   xmlns:dc="http://purl.org/dc/elements/1.1/"
   xmlns:cc="http://creativecommons.org/ns#"
   xmlns:rdf="http://www.w3.org/1999/02/22-rdf-syntax-ns#"
   xmlns:svg="http://www.w3.org/2000/svg"
   xmlns="http://www.w3.org/2000/svg"
   xmlns:sodipodi="http://sodipodi.sourceforge.net/DTD/sodipodi-0.dtd"
   xmlns:inkscape="http://www.inkscape.org/namespaces/inkscape"
   id="svg8"
   version="1.1"
   viewBox="0 0 52.916666 52.916668"
   height="200"
   width="200"
   sodipodi:docname="extraccionindicada.svg"
   inkscape:version="0.92.4 (5da689c313, 2019-01-14)">
  <sodipodi:namedview
     pagecolor="#ffffff"
     bordercolor="#666666"
     borderopacity="1"
     objecttolerance="10"
     gridtolerance="10"
     guidetolerance="10"
     inkscape:pageopacity="0"
     inkscape:pageshadow="2"
     inkscape:window-width="1920"
     inkscape:window-height="1017"
     id="namedview820"
     showgrid="false"
     inkscape:zoom="4.24"
     inkscape:cx="100"
     inkscape:cy="90.566038"
     inkscape:window-x="-8"
     inkscape:window-y="-8"
     inkscape:window-maximized="1"
     inkscape:current-layer="svg8" />
  <defs
     id="defs2" />
  <metadata
     id="metadata5">
    <rdf:RDF>
      <cc:Work
         rdf:about="">
        <dc:format>image/svg+xml</dc:format>
        <dc:type
           rdf:resource="http://purl.org/dc/dcmitype/StillImage" />
        <dc:title></dc:title>
      </cc:Work>
    </rdf:RDF>
  </metadata>
  <path
     id="path866"
     d="M 33.596273,26.458334 44.302114,15.752493 c 1.313757,-1.313758 1.313757,-3.443799 0,-4.758626 L 41.9228,8.6145544 c -1.313757,-1.313757 -3.443799,-1.313757 -4.758627,0 L 26.458332,19.320393 15.752493,8.6145544 c -1.313757,-1.313757 -3.443799,-1.313757 -4.758625,0 L 8.614553,10.993867 c -1.3137566,1.313758 -1.3137566,3.443799 0,4.758626 L 19.320394,26.458334 8.614553,37.164173 c -1.3137566,1.313757 -1.3137566,3.443802 0,4.758625 l 2.379315,2.379315 c 1.313756,1.313756 3.444868,1.313756 4.758625,0 l 10.705839,-10.70584 10.705841,10.70584 c 1.313758,1.313756 3.44487,1.313756 4.758627,0 l 2.379314,-2.379315 c 1.313757,-1.313756 1.313757,-3.443797 0,-4.758625 z"
     inkscape:connector-curvature="0"
     style="fill:#fe0000;stroke-width:0.10698351;fill-opacity:1" />
</svg>
